<svg width="1024" height="1024" viewBox="0 0 1024 1024" fill="none" xmlns="http://www.w3.org/2000/svg">
  <defs>
    <linearGradient id="surface" x1="176" y1="132" x2="844" y2="900" gradientUnits="userSpaceOnUse">
      <stop offset="0" stop-color="#F8FBFF"/>
      <stop offset="0.58" stop-color="#E5EFF8"/>
      <stop offset="1" stop-color="#D5E6EC"/>
    </linearGradient>
    <linearGradient id="edge" x1="171" y1="122" x2="832" y2="895" gradientUnits="userSpaceOnUse">
      <stop offset="0" stop-color="#FFFFFF" stop-opacity="0.9"/>
      <stop offset="0.55" stop-color="#8CA9C7" stop-opacity="0.22"/>
      <stop offset="1" stop-color="#3CAFA6" stop-opacity="0.28"/>
    </linearGradient>
    <linearGradient id="diagonal" x1="414" y1="239" x2="692" y2="791" gradientUnits="userSpaceOnUse">
      <stop offset="0" stop-color="#22C8B5"/>
      <stop offset="1" stop-color="#1767E8"/>
    </linearGradient>
    <filter id="appShadow" x="48" y="52" width="928" height="936" filterUnits="userSpaceOnUse" color-interpolation-filters="sRGB">
      <feDropShadow dx="0" dy="28" stdDeviation="42" flood-color="#142B48" flood-opacity="0.22"/>
      <feDropShadow dx="0" dy="4" stdDeviation="8" flood-color="#FFFFFF" flood-opacity="0.7"/>
    </filter>
    <filter id="markShadow" x="222" y="194" width="580" height="636" filterUnits="userSpaceOnUse" color-interpolation-filters="sRGB">
      <feDropShadow dx="0" dy="15" stdDeviation="17" flood-color="#17253A" flood-opacity="0.22"/>
    </filter>
  </defs>

  <g filter="url(#appShadow)">
    <rect x="92" y="84" width="840" height="856" rx="204" fill="url(#surface)"/>
    <rect x="112" y="104" width="800" height="816" rx="184" stroke="url(#edge)" stroke-width="22"/>
  </g>

  <g filter="url(#markShadow)">
    <rect x="266" y="238" width="126" height="548" rx="55" fill="#142338"/>
    <rect x="632" y="238" width="126" height="548" rx="55" fill="#142338"/>
    <path d="M346 238H477L704 786H573L346 238Z" fill="url(#diagonal)"/>
    <path d="M348 238H456L685 786H577L348 238Z" fill="white" fill-opacity="0.18"/>
  </g>

  <path d="M277 210C312 188 354 178 407 178H616C669 178 711 188 746 210" stroke="#FFFFFF" stroke-opacity="0.5" stroke-width="18" stroke-linecap="round"/>
</svg>
